<svg data-home width="112" height="122" viewBox="0 0 112 122" fill="none" xmlns="http://www.w3.org/2000/svg">
    <path d="M0.335386 28.6821C0.135935 19.0586 6.22334 10.4256 15.355 7.3817L18.657 6.28103C44.3792 -2.29306 72.3111 -1.44973 97.4693 8.66056C106.177 12.1599 111.732 20.7699 111.331 30.1459L108.385 98.9996C108.148 104.546 104.894 109.518 99.906 111.955C76.8874 123.203 50.3815 124.997 26.057 116.954L12.245 112.387C6.10473 110.357 1.91042 104.678 1.77642 98.2118L0.335386 28.6821Z" fill="#FEF6DC"/>
    <path d="M81.2 3.50002C82.84 3.87984 83.5964 4.08366 85.1 4.50002C86.6036 4.91638 88.9888 5.61072 91.6 6.50002C93.8066 7.21475 94.9871 7.66389 97.08 8.50002C98.8037 9.18387 99.6419 9.64895 101.06 10.5C101.419 10.7326 101.736 10.9469 102.043 11.1637C103.71 12.3385 105.208 13.7886 106.486 15.3782C107.874 17.1068 108.979 19.0142 109.786 21.0793C110.011 21.654 110.239 22.265 110.5 23C110.808 24.1997 111 25 111.11 26C111.33 27.6634 111.401 29.343 111.323 31.019L111 38L109.16 81L108.7 91L108.46 97.5C108.473 98.7628 108.347 100.023 108.084 101.258L107.948 101.897C107.651 103.289 107.126 104.623 106.394 105.844L106 106.5C105.326 107.494 104.893 108.044 104 109C103.094 109.921 102.54 110.344 101.5 111L103.304 104.084C104.099 101.036 104.572 97.914 104.715 94.7679L105 88.5V78.5L104.5 70.5L101.702 52.311C101.568 51.4399 101.335 50.5868 101.007 49.7685C99.4576 45.8941 95.9452 43.1516 91.8106 42.5878L87.5 42L70 40L52.5 36L31.201 28.4827C30.639 28.2843 30.8331 27.4457 31.4252 27.5146L70 32H79.5L89 31L95.8549 29.2863C96.616 29.096 97.3541 28.823 98.0558 28.4721L99.9568 27.5216C102.435 26.2827 104 23.75 104 20.9795C104 20.3294 103.913 19.6822 103.742 19.055L103.63 18.6434C102.906 15.9879 101.168 13.7229 98.7904 12.3361L96.5 11L89 7.50002L81.2 3.50002Z" fill="#F1E0BE"/>
    <path d="M82.5 36.5L94.1844 35.002C99.2503 34.3525 103.956 32.0354 107.559 28.4159L110.96 25C111.112 26.1294 111.217 26.8916 111.36 28.5C111.319 32.9201 110.5 46.5 110 61.5C109.5 76.5 108.5 93 108.5 93L107.1 48.1968C107.038 46.2079 105.956 44.3911 104.237 43.3884C102.094 42.1381 99.7582 41.2516 97.325 40.765L93.5 40L82.5 36.5Z" fill="#EFCFA0"/>
    <ellipse cx="13" cy="63" rx="10" ry="5" fill="#F35F62"/>
    <path d="M14 58C21.2401 50.3418 27.1739 56.1627 30.5 62.4999" stroke="#7D2E1E" stroke-width="4" stroke-linecap="round"/>
    <ellipse cx="16" cy="61.5" rx="5" ry="2.5" fill="#FEF6DC"/>
    <ellipse cx="80" cy="70" rx="10" ry="5" fill="#F35F62"/>
    <path d="M59 60.6463C66.2401 52.9881 72.1739 58.8091 75.5 65.1463" stroke="#7D2E1E" stroke-width="4" stroke-linecap="round"/>
    <ellipse cx="83" cy="68.5" rx="5" ry="2.5" fill="#FEF6DC"/>
    <path d="M30 73C34.237 80.8294 36.8157 81.098 41.0736 74.9051C41.5032 74.2803 42.4514 74.3093 42.8483 74.9554C47.4082 82.3786 50.7933 81.2004 55.5 74" stroke="#7D2E1E" stroke-width="4" stroke-linecap="round"/>
    <circle cx="16" cy="30" r="3" fill="#F1E0BE"/>
    <circle cx="24.5" cy="35.5" r="2.5" fill="#F1E0BE"/>
    <circle cx="18" cy="38" r="2" fill="#F1E0BE"/>
    <circle cx="95" cy="15" r="2" fill="#F1E0BE"/>
    <circle cx="98.5" cy="20.5" r="1.5" fill="#F1E0BE"/>
    <circle cx="94" cy="22" r="1" fill="#F1E0BE"/>
    <circle cx="9" cy="100" r="2" fill="#F1E0BE"/>
    <circle cx="11" cy="105" r="1" fill="#F1E0BE"/>
    <circle cx="16" cy="104" r="1" fill="#F1E0BE"/>
    <circle cx="15" cy="108" r="1" fill="#F1E0BE"/>
    <circle cx="96" cy="104" r="3" fill="#F1E0BE"/>
    <circle cx="89.5" cy="100.5" r="1.5" fill="#F1E0BE"/>
    <circle cx="88.5" cy="106.5" r="1.5" fill="#F1E0BE"/>
</svg>