<svg data-logo-text width="1835" height="683" viewBox="0 0 1835 683" fill="none" xmlns="http://www.w3.org/2000/svg">
<path d="M481.875 67.1875C453.451 68.6577 398.744 71.7418 317.753 76.4398C308.358 76.9847 300.166 83.16 297.956 92.3073C287.235 136.679 281.875 214.243 281.875 325C282.36 360.372 283.069 411.973 284.005 479.803C284.124 488.441 277.367 495.634 268.741 496.115C263.697 496.395 257.874 496.732 251.271 497.124C231.958 498.271 214.929 484.404 212.495 465.211C207.186 423.361 204.531 393.291 204.531 375C204.531 265.104 204.271 223.698 203.75 250.781C204.991 202.802 208.859 157.287 215.356 114.234C217.99 96.7771 205.139 80.5932 187.49 81.0565C171.354 81.4801 153.597 82.5862 134.219 84.375C94.1146 86.9792 67.2917 88.2812 53.75 88.2812C37.6042 88.2812 22.2396 87.2396 7.65625 85.1562C2.96875 84.6354 0.625 76.5625 0.625 60.9375C0.625 42.7083 4.01042 32.0312 10.7812 28.9062C27.9688 21.0938 85.7812 14.3229 184.219 8.59375C262.865 3.38542 322.24 0.78125 362.344 0.78125C451.927 0.78125 504.531 13.2812 520.156 38.2812C520.156 50.2604 517.031 58.3333 510.781 62.5C505.052 66.1458 495.417 67.7083 481.875 67.1875Z" fill="#FFEACA"/>
<path d="M620.481 441.745C622.774 441.959 624.803 443.33 625.263 445.587C625.854 448.485 625.975 452.56 625.625 457.812C624.863 463.909 615.599 469.03 610.68 471.34C608.818 472.215 607.503 473.924 606.701 475.82C602.468 485.82 589.138 485.305 574.844 493.75C559.74 500.521 549.844 503.906 545.156 503.906C502.969 503.906 463.646 495.833 427.188 479.688C375.104 456.25 349.062 421.354 349.062 375C349.062 339.583 364.167 308.333 394.375 281.25C423.542 254.688 455.833 241.406 491.25 241.406C549.062 241.406 575.625 275 570.938 342.188C569.403 368.278 562.089 385.826 548.997 394.832C548.526 395.157 548.008 395.407 547.467 395.595C525.954 403.059 504.442 410.522 482.929 417.986C478.748 419.436 478.439 425.072 482.558 426.688C501.368 434.07 523.797 438.194 549.844 439.062C587.394 439.957 610.939 440.851 620.481 441.745ZM506.313 325.359C506.691 323.143 504.938 321.309 502.805 320.599C499.108 319.366 495.256 318.75 491.25 318.75C479.589 318.75 462.034 326.683 438.587 342.548C435.344 344.743 433.438 348.426 433.438 352.342C433.438 354.763 433.438 357.108 433.438 359.375C433.438 364.583 436.302 367.188 442.031 367.188C443.594 367.188 445.677 366.927 448.281 366.406C454.531 366.927 466.25 361.198 483.438 349.219C497.665 339.302 505.29 331.349 506.313 325.359Z" fill="#FFEACA"/>
<path d="M875.625 417.188C875.625 444.271 876.146 454.427 877.188 447.656C876.244 454.734 871.453 469.292 862.815 491.331C861.395 494.953 856.946 496.245 853.592 494.274C841.952 487.434 829.088 483.655 814.999 482.938C812.241 482.798 810 480.573 810 477.811C810 465.409 810 454.837 810 446.094C810 382.031 796.979 329.948 770.938 289.844C756.875 294.531 745.677 309.635 737.344 335.156C732.135 349.74 726.146 376.562 719.375 415.625C713.834 450.254 708.499 476.082 703.367 493.11C702.258 496.79 698.818 499.281 694.995 498.881C684.471 497.78 673.587 493.986 662.344 487.5C647.24 478.125 639.688 467.448 639.688 455.469C639.688 419.01 650.625 371.875 672.5 314.062C699.062 242.188 729.531 206.25 763.906 206.25C804.01 206.25 834.479 239.583 855.312 306.25C868.854 349.479 875.625 386.458 875.625 417.188Z" fill="#FFEACA"/>
<path d="M1192.81 397.656C1192.81 430.99 1171.46 457.031 1128.75 475.781C1097.5 489.844 1065.99 496.875 1034.22 496.875C998.802 496.875 968.073 489.062 942.031 473.438C910.781 454.688 895.156 428.125 895.156 393.75C895.156 363.542 910 332.292 939.688 300C969.375 267.708 998.281 251.562 1026.41 251.562C1029.01 251.562 1034.22 252.604 1042.03 254.688C1049.84 256.25 1055.31 257.031 1058.44 257.031C1061.56 257.031 1068.07 254.688 1077.97 250C1087.86 245.833 1094.38 243.75 1097.5 243.75C1128.23 243.75 1153.23 266.146 1172.5 310.938C1186.04 344.271 1192.81 373.177 1192.81 397.656ZM1118.59 375C1118.59 363.542 1115.47 350.26 1109.22 335.156C1102.97 320.052 1095.68 311.719 1087.34 310.156C1086.3 310.677 1082.66 313.542 1076.41 318.75C1071.2 322.917 1067.03 325 1063.91 325C1060.78 325 1056.88 323.698 1052.19 321.094C1048.02 318.49 1044.64 317.188 1042.03 317.188C1027.97 317.188 1011.82 327.083 993.594 346.875C975.365 367.188 966.25 384.115 966.25 397.656C966.25 407.031 975.625 416.927 994.375 427.344C1010.52 436.198 1022.24 440.625 1029.53 440.625C1046.72 440.625 1065.21 434.375 1085 421.875C1107.4 408.333 1118.59 392.708 1118.59 375Z" fill="#FFEACA"/>
<path d="M1452.19 328.906C1440.73 370.573 1417.55 453.385 1382.66 577.344C1385.26 578.906 1389.17 576.042 1394.38 568.75C1400.1 561.979 1405.83 556.25 1408.44 556.25C1413.12 556.25 1420.94 562.5 1431.88 575C1443.33 588.542 1450.89 602.604 1454.53 617.188C1454.53 617.188 1454.53 617.448 1454.53 617.969C1454.53 621.615 1443.33 630.208 1420.94 643.75C1399.26 657.621 1384.44 668.967 1376.48 677.787C1373.79 680.765 1370.09 682.83 1366.07 682.752C1344.44 682.334 1328.88 679.75 1319.38 675C1304.79 666.667 1297.5 651.302 1297.5 628.906C1297.5 596.094 1304.27 560.677 1317.81 522.656C1334.48 474.74 1343.07 449.219 1343.59 446.094C1339.43 443.49 1333.18 442.969 1324.84 444.531C1311.3 445.573 1304.27 446.094 1303.75 446.094C1279.79 446.094 1256.35 436.719 1233.44 417.969C1210 398.177 1198.28 375.781 1198.28 350.781C1198.28 316.927 1211.3 282.812 1237.34 248.438C1265.47 210.417 1297.76 191.406 1334.22 191.406C1368.59 191.406 1398.28 209.896 1423.28 246.875C1444.64 278.125 1454.27 305.469 1452.19 328.906ZM1346.72 265.625C1334.74 265.625 1319.9 277.344 1302.19 300.781C1284.48 323.698 1275.62 340.885 1275.62 352.344C1275.62 354.427 1275.89 355.99 1276.41 357.031C1282.14 363.281 1289.17 366.406 1297.5 366.406C1312.6 366.406 1327.71 358.594 1342.81 342.969C1357.92 326.823 1365.47 310.677 1365.47 294.531C1365.47 288.281 1363.91 282.031 1360.78 275.781C1357.14 269.01 1352.45 265.625 1346.72 265.625Z" fill="#FFEACA"/>
<path d="M1823.75 433.093C1832.82 441.985 1836.78 454.15 1833.44 466.406C1831.22 474.897 1829.66 481.164 1828.76 485.206C1828.22 487.593 1826.6 489.719 1824.22 490.244C1823.06 490.498 1821.97 490.625 1820.94 490.625C1817.29 490.625 1812.86 488.802 1807.66 485.156C1802.92 482.312 1798.39 480.331 1794.08 479.213C1793.25 478.995 1792.44 478.66 1791.72 478.181C1771.78 464.89 1752.09 451.851 1732.66 439.062C1726.78 434.093 1720.13 422.853 1712.69 405.343C1712.22 404.243 1709.83 404.791 1709.8 405.986C1708.94 440.455 1675.4 480.717 1646.72 492.188C1635.78 496.354 1622.76 498.438 1607.66 498.438C1523.8 498.438 1481.88 458.854 1481.88 379.688C1481.88 359.896 1487.86 335.156 1499.84 305.469C1515.47 267.448 1533.96 248.438 1555.31 248.438C1566.25 248.438 1576.15 255.208 1585 268.75C1592.29 280.208 1595.94 289.583 1595.94 296.875C1595.94 300.521 1589.69 315.365 1577.19 341.406C1564.69 367.969 1558.44 383.073 1558.44 386.719C1558.44 397.135 1561.82 405.99 1568.59 413.281C1575.36 420.573 1582.92 424.219 1591.25 424.219C1611.04 424.219 1625.1 410.677 1633.44 383.594C1639.17 359.115 1644.9 334.115 1650.62 308.594C1660 282.031 1676.67 268.49 1700.62 267.969C1713.12 267.969 1723.28 275.521 1731.09 290.625C1735.78 303.646 1740.21 316.406 1744.38 328.906C1754.72 356.637 1781.17 391.366 1823.75 433.093Z" fill="#FFEACA"/>
</svg>